<?xml version="1.0" encoding="UTF-8"?>
<svg id="Layer_2" data-name="Layer 2" xmlns="http://www.w3.org/2000/svg" viewBox="0 0 1200 1200">
  <defs>
    <style>
      .cls-1, .cls-2, .cls-3 {
        fill: #fff;
      }

      .cls-4 {
        fill: #fd0f3b;
      }

      .cls-2 {
        font-size: 101.22px;
      }

      .cls-2, .cls-3 {
        font-family: BlackOpsOne-Regular, 'Black Ops One';
      }

      .cls-5 {
        fill: #013147;
      }

      .cls-3 {
        font-size: 146.77px;
      }
    </style>
  </defs>
  <circle class="cls-4" cx="600.09" cy="597.74" r="572.65"/>
  <circle class="cls-5" cx="600.09" cy="597.74" r="542.51"/>
  <text class="cls-3" transform="translate(210.66 495.4) rotate(-67.61)"><tspan x="0" y="0">B</tspan></text>
  <text class="cls-3" transform="translate(251.71 397.03) rotate(-52.92)"><tspan x="0" y="0">o</tspan></text>
  <text class="cls-3" transform="translate(314.51 317.89) rotate(-41.73)"><tspan x="0" y="0">l</tspan></text>
  <text class="cls-3" transform="translate(359.22 278.85) rotate(-33.77)"><tspan x="0" y="0">i</tspan></text>
  <text class="cls-3" transform="translate(400 249.88) rotate(-23.83)"><tspan x="0" y="0">v</tspan></text>
  <text class="cls-3" transform="translate(481.55 215.98) rotate(-13.85)"><tspan x="0" y="0">i</tspan></text>
  <text class="cls-3" transform="translate(527.82 202.45) rotate(-3.49)"><tspan x="0" y="0">a</tspan></text>
  <text class="cls-3" transform="translate(623.29 196.51) rotate(10.18)"><tspan x="0" y="0">n</tspan></text>
  <text class="cls-3" transform="translate(721.03 216.97) rotate(20.35)"><tspan x="0" y="0"> </tspan></text>
  <text class="cls-3" transform="translate(760.26 228.51) rotate(30.98)"><tspan x="0" y="0">P</tspan></text>
  <text class="cls-3" transform="translate(848.4 281.88) rotate(44.99)"><tspan x="0" y="0">e</tspan></text>
  <text class="cls-3" transform="translate(915.31 348.71) rotate(58.37)"><tspan x="0" y="0">s</tspan></text>
  <text class="cls-3" transform="translate(964.4 431.5) rotate(70.25)"><tspan x="0" y="0">t</tspan></text>
  <circle class="cls-5" cx="600.09" cy="597.74" r="305.67"/>
  <text class="cls-2" transform="translate(149.66 766.08) rotate(65)"><tspan x="0" y="0">H</tspan></text>
  <text class="cls-2" transform="translate(187.97 843.06) rotate(57.26)"><tspan x="0" y="0">i</tspan></text>
  <text class="cls-2" transform="translate(211.12 879.75) rotate(50.08)"><tspan x="0" y="0">g</tspan></text>
  <text class="cls-2" transform="translate(262.14 937.96) rotate(42.89)"><tspan x="0" y="0">i</tspan></text>
  <text class="cls-2" transform="translate(293.66 967.73) rotate(35.75)"><tspan x="0" y="0">e</tspan></text>
  <text class="cls-2" transform="translate(357.49 1012.52) rotate(26.36)"><tspan x="0" y="0">n</tspan></text>
  <text class="cls-2" transform="translate(429.32 1046.9) rotate(16.87)"><tspan x="0" y="0">e</tspan></text>
  <text class="cls-2" transform="translate(503.32 1067.42) rotate(10.02)"><tspan x="0" y="0"> </tspan></text>
  <text class="cls-2" transform="translate(539.94 1074.4) rotate(3.22)"><tspan x="0" y="0">a</tspan></text>
  <text class="cls-2" transform="translate(619.55 1079.25) rotate(-8.23)"><tspan x="0" y="0">m</tspan></text>
  <text class="cls-2" transform="translate(732.21 1059.78) rotate(-19.94)"><tspan x="0" y="0">b</tspan></text>
  <text class="cls-2" transform="translate(804.84 1031.5) rotate(-27.24)"><tspan x="0" y="0">i</tspan></text>
  <text class="cls-2" transform="translate(843.56 1011.96) rotate(-34.42)"><tspan x="0" y="0">e</tspan></text>
  <text class="cls-2" transform="translate(907.34 967.1) rotate(-43.76)"><tspan x="0" y="0">n</tspan></text>
  <text class="cls-2" transform="translate(963.02 911.62) rotate(-51.86)"><tspan x="0" y="0">t</tspan></text>
  <text class="cls-2" transform="translate(998.06 866.91) rotate(-59.8)"><tspan x="0" y="0">a</tspan></text>
  <text class="cls-2" transform="translate(1035.35 799.5) rotate(-67.33)"><tspan x="0" y="0">l</tspan></text>
  <rect class="cls-4" x="886.08" y="585.23" width="199.41" height="29.32" rx="1.6" ry="1.6"/>
  <rect class="cls-4" x="118.59" y="585.23" width="199.41" height="29.32" rx="1.6" ry="1.6"/>
  <rect class="cls-4" x="556.05" y="256.99" width="88.09" height="29.32" rx="1.6" ry="1.6" transform="translate(871.74 -328.44) rotate(90)"/>
  <rect class="cls-4" x="556.05" y="912.66" width="88.09" height="29.32" rx="1.6" ry="1.6" transform="translate(1527.41 327.23) rotate(90)"/>
  <g>
    <path class="cls-4" d="M591.48,770.78c-82.35-10.54-107.35-114.59-93.29-184.06,9.67-47.79,36.43-66.68,83.97-69.16,4.4-.23,11.07-1.32,10.61,4.31-3.06,76.59,3.86,156.05,0,232.3-.28,5.56-2.07,10.94-1.29,16.62ZM556.88,732.49c-12.04-47.68-14.27-98.46-12.39-147.63.35-9.2,2.81-19.8,1.91-28.96-3.33,1.79-4.93,3.46-7.04,6.55-14.3,21.01-11.68,84.62-8.23,109.98,2.89,21.29,10.65,44.61,25.75,60.07Z"/>
    <path class="cls-4" d="M608.77,770.78v-253.17c16.64.6,35.95,1.97,51.47,8.42,55.41,23.03,50.41,121.49,34.31,168.13-12.83,37.17-44.58,73.55-85.78,76.62ZM643.36,732.49c14.8-13.71,21.25-35.7,24.35-55.3,3.98-25.22,6.78-93.81-6.83-114.75-1.37-2.11-9.74-10.28-8.68-4.93,3.09,15.6,1.03,32.61,3.56,48.33.15,42.55-1.96,85.37-12.4,126.65Z"/>
    <path class="cls-4" d="M670.52,507.11c-.07.47-1.34,3.07-2.03,3.18-.96.15-12.3-3.85-15.22-4.46-29.12-6.03-72.22-6.41-101.57-1.45-4.24.72-19.07,6.02-20.09,5.82-1.81-.35-3.09-10.65-3.17-12.92-.63-18.54,7.94-35.73,23.6-45.65,4.06-5.54-4.06-19.62-7.71-24.58-4.99-6.81-28.47-20.88-15.06-27.83,5.69-2.95,9.91-.78,15.14,1.83,15.82,7.9,23.91,25.18,23.62,42.47,15.81-10.58,37.16-11.17,54.66-4.66,3.59,1.34,6.02,3.87,9.54,4.65.94-14.1,4.95-28.25,16.17-37.56,5.6-4.64,14.49-10.16,21.81-7.19,15.46,6.28-8.3,20.58-13.06,27.06-2.96,4.03-10.29,17.51-10.17,22.07.13,4.7,7.73,8.49,11.22,12.27,4.13,4.47,12.32,17.68,12.32,23.49,0,6.76.98,17.35,0,23.46Z"/>
    <path class="cls-4" d="M480.32,665.8c.01,5.75,4.63,13.59,3.74,19.08-.35,2.17-5.92,7.79-7.64,10.97-7.75,14.38-.8,27.36.19,42.21,1.44,21.64-3,34.66-16.78,51.11-3.69,4.4-6.01,9.62-12.87,8.29-17.14-3.32,4.9-26.14,8.11-32.82,10.79-22.46-7.05-50.36,4.42-75.85,1.52-3.38,16.81-26.66,20.83-23Z"/>
    <path class="cls-4" d="M746.22,796.33c-15.68-18.32-24.26-31.91-22.59-57.02.9-13.58,7.43-29.02,1.43-42.22-1.93-4.25-7.94-8.91-8.65-12.43-1.12-5.57,3.49-13.09,3.51-18.84,2.14-.55,2.47.89,3.71,1.84,7.28,5.61,19.17,22.15,20.69,31.18,3.12,18.46-4.87,40.02-2.1,57.67,1.62,10.31,18.08,25.24,18.09,32.43.01,7.17-8.09,10.96-14.09,7.4Z"/>
    <path class="cls-4" d="M484.03,567.01c-1.88,3.46-3.11,20.83-3.87,22.06-.29.47-8.21,2.63-10.37,3.83-21.22,11.76-18.43,52.59-41.04,62.7-6.93,3.1-30.79,9.44-30.05-2.76.51-8.44,14.64-9.09,20.76-12.71,9.98-5.91,11.84-21.91,16.19-31.97,8.92-20.58,25.31-37.96,48.38-41.14Z"/>
    <path class="cls-4" d="M799.89,658.1c-4.43,4.44-23.64-.07-29.22-2.92-18.93-9.67-19.37-45.82-34.78-59.08-3.88-3.34-12.72-5.25-14.1-6.89-2.24-2.67-3.72-17.76-5.58-22.2,19.74,2.33,37.71,18.35,46.56,35.55,4.46,8.67,8.74,27.68,13.38,33.55,5.99,7.59,24.92,7.35,25.34,16.69.06,1.36-.66,4.35-1.61,5.3Z"/>
    <path class="cls-4" d="M743.08,446.22c4.42-.63,7.9.84,8.75,5.61,1.9,10.66-16.72,13.83-19.87,21.63-2.15,5.33-1.16,21.12-2.32,28.55-2.51,16.04-10.34,32.22-25.03,40.24-1.14-.23-9.48-11.48-9.26-12.74.34-1.98,11.32-10.02,13.39-16.29,1.92-5.84,2.91-16.85,3.76-23.41,1.24-9.61-1.16-22.62,5.69-30.12,3.93-4.3,19.23-12.66,24.89-13.46Z"/>
    <path class="cls-4" d="M452.82,446.19c8.28-2.34,32.19,12.92,33.57,22.75,2.01,14.34-.04,38.22,8.76,50.51,1.7,2.37,9.46,8.41,9.74,10.06.23,1.31-8.18,12.49-9.11,12.57-14.71-7.85-22.23-23.09-24.97-39.04-1.51-8.75-.59-23.94-3.77-30.81-3.43-7.4-22.24-9.35-18.57-21.67.44-1.49,2.88-3.96,4.36-4.38Z"/>
  </g>
  <g>
    <g>
      <path class="cls-1" d="M296.54,562.31c16.23-140.48,127.64-251.91,268.13-268.13v-52.78c-169.48,16.65-304.27,151.43-320.92,320.91h52.79Z"/>
      <path class="cls-1" d="M296.54,633.17h-52.79c16.65,169.48,151.44,304.26,320.92,320.91v-52.78c-140.48-16.22-251.9-127.66-268.13-268.13Z"/>
    </g>
    <g>
      <path class="cls-1" d="M903.64,562.31h52.79c-16.65-169.48-151.43-304.26-320.92-320.91v52.78c140.49,16.22,251.9,127.66,268.13,268.13Z"/>
      <path class="cls-1" d="M903.64,633.17c-16.23,140.47-127.64,251.91-268.13,268.13v52.78c169.48-16.65,304.27-151.43,320.92-320.91h-52.79Z"/>
    </g>
  </g>
</svg>