<?xml version="1.0" encoding="UTF-8"?>
<svg id="Capa_2" data-name="Capa 2" xmlns="http://www.w3.org/2000/svg" viewBox="0 0 384 383.88">
  <defs>
    <style>
      .cls-1 {
        fill: #fff;
      }
    </style>
  </defs>
  <g id="Capa_1-2" data-name="Capa 1">
    <g>
      <path class="cls-1" d="M.54,325.49c.41-3.67,2.73-11.34,3.95-15.13,6.55-20.2,21.25-35.58,39.4-45.91-16.27-17.99-18.4-45.05-2.97-64.33,21.47-26.83,63.58-23.68,80.35,6.33,10.93,19.56,7.33,41.51-7.12,58.01,17.11,9.43,31.85,24.18,38.13,43.05l8.14-5.61c-25.11-30.77,2.19-75.52,41.2-66.65,29.36,6.67,41.3,43.8,21.72,66.65l8.14,5.61c6.26-18.92,21.04-33.54,38.13-43.05-14.71-16.72-18.13-39.42-6.58-58.98,18.86-31.93,65.83-31.46,83.95.96,10.92,19.55,7.34,41.51-7.11,58,24.43,13.29,41.59,37.61,43.38,65.87.69,10.94,1.26,33.03-.01,43.46-.68,5.53-4.21,8.2-8.99,10.09H9.51c-4.43-1.86-7.1-4.52-8.97-8.98,1.27-15.68-1.71-34.05,0-49.4ZM75.1,204.43c-32.82,4.45-27.46,56,7.2,52.12,33.64-3.76,28.26-56.93-7.2-52.12ZM300.83,204.43c-32.82,4.45-27.46,56,7.2,52.12,33.64-3.76,28.26-56.93-7.2-52.12ZM188.71,256.83c-22.81,3.23-19.61,39.92,5.71,37.14,23.67-2.59,20.4-40.84-5.71-37.14ZM128.35,361.42c-.21-5.09.1-10.11.97-15.12,2.33-13.52,7.73-14.67,2.59-29.98-12.06-35.96-58.64-49.03-88.02-24.89-9.72,7.98-20.92,25.29-20.92,38.18v31.81h105.39ZM360.8,361.42v-31.81c0-12.7-11.03-29.87-20.54-37.82-29.39-24.57-76.23-11.74-88.41,24.53-5.14,15.31.24,16.47,2.61,29.96.88,5.01,1.13,10.06.95,15.14h105.39ZM232.99,361.42c1.46-59.47-83.7-59.34-82.22,0h82.22Z"/>
      <path class="cls-1" d="M159.54.8c20.07,1.1,42.89-2.07,62.64-.2,10.26.97,10.42,10.13,16.06,16.85,4.85,5.77,12.08,10.29,19.4,12.01,8.32,1.95,17.87-.64,20.12,10.54-.8,51.42,8.46,99.97-27.95,141.79-11.46,13.16-38.61,33.86-56.14,35.86-16.4,1.88-49.13-23.69-59.74-35.86-36.48-41.89-27.79-92.63-27.31-144.14,3.51-8.79,12.37-6.46,20.05-8.36,8.65-2.13,16.47-7.81,21.4-15.25,3.32-5.01,4.28-11.82,11.45-13.23ZM169.21,23.21c-7.19,10.61-15.73,19.47-27.65,24.71-3.47,1.52-9.67,2.56-11.95,3.75-.52.27-1.04.38-1.17,1.08,1.27,29.95-4.69,61.53,7.25,89.86,8.85,20.98,26.71,39.74,47.7,48.79,8.26,3.56,8.14,3.74,16.47.24,21.14-8.89,39.38-27.93,48.21-49.03,11.81-28.23,5.96-59.4,7.35-89.21-.48-2.46-5.39-2.45-7.88-3.34-14.11-5.05-24.89-14.38-32.99-26.85h-45.35Z"/>
      <path class="cls-1" d="M220.83,77.16c10.22-1.87,16.73,7.11,12.58,16.33l-44.12,44.89c-3.94,3.88-9.99,4.1-14.54,1.05-3.56-2.38-20-19.03-22.86-22.76-8.28-10.77,3.72-23.91,14.56-16.82,4.32,2.82,8.9,10.3,13.08,13.11.7.47,1.2.97,2.13.62l33.4-33.24c1.67-1.37,3.61-2.78,5.78-3.18Z"/>
    </g>
  </g>
</svg>