<?xml version="1.0" encoding="UTF-8"?>
<svg id="Capa_2" data-name="Capa 2" xmlns="http://www.w3.org/2000/svg" viewBox="0 0 317.75 318.19">
  <defs>
    <style>
      .cls-1 {
        fill: #040404;
      }
    </style>
  </defs>
  <g id="Capa_1-2" data-name="Capa 1">
    <g>
      <path class="cls-1" d="M211.51,0c84.22-.47,135.5,94.69,88.16,164.87-40.84,60.54-129.66,62.27-172.9,3.43C75.69,98.8,125.89.48,211.51,0ZM207.52,9.95c-74.93,3.98-117.71,89.08-74.02,150.95,41.08,58.17,129.39,53.07,163.05-9.71,35.03-65.32-15.14-145.16-89.03-141.24Z"/>
      <path class="cls-1" d="M140.48,227.4c2.82-2.47,7.31-3.02,10.82-1.7,3.85,1.45,15.09,11.01,19.67,14.04,6,3.97,15.34,8.44,20.5,12.54,4.45,3.54,4.48,8.77,2.43,13.66-4.53,10.81-14.38,30.34-20.49,40.31-15.43,25.17-40.31,4.52-56.49-7.17-36.21-26.16-69.75-59.46-96.15-95.49-13.58-18.53-35.7-44.2-6.08-60.69,12.83-7.14,27.06-12.12,39.64-19.83,11.03-3.07,14.39,9.27,19.17,16.55,4.35,6.63,12.79,16.71,15.89,23.1,1.94,4,2,6.93-.68,10.58-3.15,4.29-15.32,10.93-16.83,14.22-.9,1.96-.31,3.53.68,5.24,2.21,3.83,10.7,12.52,14.16,16.24,11.23,12.06,23.49,23.32,35.87,34.17,2.12.96,4.35.7,6.12-.81,3.91-3.34,7.88-11.56,11.78-14.98ZM58.21,132.76l-2.36.43c-11.26,7.6-30.51,12.73-40.83,20.63-4.64,3.56-6.42,9.94-4.92,15.49,1.68,6.23,14.77,23.58,19.25,29.65,26.26,35.64,60.89,69.74,97.2,95.09,11.82,8.25,28.48,23.59,39.15,5.81,7.1-11.82,11.42-26.12,18.97-37.87l.43-2.35-37.96-24.57-.84.12c-8.81,11.65-16.22,25.97-32.14,13.76-10.78-8.27-23.99-21.94-33.41-32.01-5.55-5.94-19.04-19.32-19.19-27.1-.23-11.97,12.88-14.99,18.95-22.84l-22.31-34.24Z"/>
      <path class="cls-1" d="M146.2,124.74h16.19c4.38,0,6.5,8.55,1.18,9.77-8.58-.66-20,1.4-28.23.1-3.61-.57-4.41-4.03-3.31-7.2,1.48-4.28,11.79-15.56,15.49-18.87,4.7-4.2,10.22-4.69,9.27-12.57-.78-6.48-9.45-8.46-13.58-3.64-3.19,3.72-1.21,12.12-9.09,9.8-5.66-1.67-1.4-12.51,1.17-15.74,9.59-12.06,29.99-6.28,31.39,8.94,1.45,15.66-11.77,17.34-19.49,27.41-.51.67-1.27.83-.99,1.99Z"/>
      <path class="cls-1" d="M184.2,112.19c-1.15-.25-3.37-2.35-3.62-3.65-1.32-7.02.84-18.14.12-25.62,1.36-3.14,6.05-4.07,8.29-1.62.19.2,1.49,3.28,1.49,3.47v17.51h15.86v-19.49c0-.25,2.26-2.23,2.82-2.48,3.11-1.36,6.61,1.08,6.47,4.42l-.18,46.82c-.62,2.81-4.01,3.9-6.45,2.77-.34-.16-2.65-2.44-2.65-2.63v-19.49c-6.28-.93-16.35,1.25-22.14,0Z"/>
      <path class="cls-1" d="M279.03,89.72h-18.17c-3.52,0-6.02-8.83.7-9.87,4.34-.68,22.68-.68,27.02,0,3.35.52,5.35,3.98,3.82,7.05-9.06,13.46-15.68,30.08-24.73,43.34-4.51,6.61-10.37,6-10.15-2.21,7.2-12.73,15.07-25.22,21.52-38.3Z"/>
      <path class="cls-1" d="M243.77,63.48c5.24-.29,5.07,4.99,4.77,8.64-1.92,23.42-9.17,48.31-11.31,71.95-2.01,6.42-10.2,4.42-9.77-1.79,5.29-23.66,5.97-50.41,11.54-73.75.62-2.59,1.67-4.88,4.76-5.05Z"/>
    </g>
  </g>
</svg>