<?xml version="1.0" encoding="UTF-8"?>
<svg id="Capa_2" data-name="Capa 2" xmlns="http://www.w3.org/2000/svg" viewBox="0 0 359.37 359.45">
  <defs>
    <style>
      .cls-1 {
        fill: #020202;
      }
    </style>
  </defs>
  <g id="Capa_1-2" data-name="Capa 1">
    <g>
      <path class="cls-1" d="M58.54,47.82l61.66.1c7.65.15,6.06,14.28,5.62,19.88-.67,8.58-4.65,14.41-9.77,20.92,4.93,2.87,8.97,10.18,9.66,15.81,1.16,9.52.76,31.65-1.8,40.7-4.97,17.59-21.57,32.54-40.04,33.69l-.03,15.22c13.81,7.46,27.14,14.49,35.07,28.72,11.1,19.93,5.61,42.76,6.88,64.61,19.54-.15,36.08,16.38,35.93,35.93l88.38-.33c6.54-29.34,9.56-59.53,15.9-88.89,2.89-13.35,7.68-19.61,22.5-18.48,5.6.43,16.74,1.31,15.85,8.9-8.75,38.5-11.67,80.24-20.84,118.41-1.87,7.78-4.87,12.94-12.84,15.61-87.94,1.67-176.23.19-264.31.75-3.75.17-6.53-2.55-6.36-6.36l.23-129.34c3.07-18.56,21.59-24.77,34.98-34.63.77-.57.7-1.37.8-2.19.96-7.88-.78-17.73-.08-25.84-20.64-3.42-33.64-23.06-28.94-43.6.98-4.27,4.47-9.03,4.97-12.25,1.93-12.34-2.07-19.39,3.9-32.78,1.69-3.8,7.26-9.94,7.79-11.67,1.4-4.54-.61-8.81,2.03-14.43,6.67-14.2,27.88-13.34,32.84,1.55ZM47.95,90.6v-38.55c0-5.22-11.98-5.22-11.98,0v38.55c3.91-1.12,8.08-1.12,11.98,0ZM113.82,59.91h-53.89v23.95h38.55c1.04,0,6.19-2.36,7.36-3.12,6.98-4.55,8.7-12.99,7.98-20.83ZM104.46,95.84h-42.29l8.22,7.88c5.23,7.15,8.11,15.79,7.53,24.71-.18,2.73-3.06,11.28-2.92,11.87.13.53,4.47,3.45,4.77,3.45h16.09v11.98h-19.84c-1.03,0-6.88-5.38-8.13-5.16-.45.08-5.57,4.83-6.98,5.78-1.49,1-6.56,2.12-5.12,3.89,2.4,2.96,13.52,6.79,17.44,7.26,19.91,2.4,38.73-12.26,40.57-32.36.62-6.72.83-22.64-.05-29.11-.58-4.29-5.06-9.42-9.29-10.17ZM38.04,102.03c-29.76,4.33-24.91,51.45,7.21,47.63,2.11-.25,12.18-3.73,11.65-6.2-.36-1.66-15.88-10.4-17.92-12.86l6.45-9.21,18.62,11.86c7.07-16.96-8.22-33.81-26.01-31.23ZM71.9,178.93c-8.89-.43-16.95-4.57-23.95-9.73v16.84l1.25,1,22.71,3.12v-11.23ZM113.82,287.47v-43.04c0-9.55-9.58-23.02-16.97-28.69-3.68-2.82-17.85-11.32-21.91-12.52s-27.87-5.22-31.12-4.88c-4.44.47-12.57,9.19-17.57,10.54l9.75,4.08c4.64,1.95,11.95,11.72,11.95,16.49v58.01h65.87ZM24,221.6c-.37-.37.27-8.9,0-10.48-4.73,1.67-11.98,9.58-11.98,14.6v25.82h23.95v-20.58c0-2.89-5.18-7.5-7.82-8.64-1.29-.56-4-.56-4.15-.71ZM257.17,335.38H125.8v11.98h141.1c1.42,0,4.89-3.98,4.65-5.83l19.66-113.17c-4.49-.62-10.24-2.43-12.35,2.96l-17.78,99.74c-.19,1.6-2.49,4.01-3.92,4.32ZM35.97,263.52H12.02v44.54c0,5.83,9.51,15.35,15.35,15.35h122.39c-.33-11.93-8.45-21.5-20.17-23.62l-88.01-.32c-1.84.44-5.6-2.71-5.6-4.13v-31.81ZM113.82,335.38H25.12c-3.07,0-10.26-4.27-13.1-5.99v17.96h101.8v-11.98Z"/>
      <path class="cls-1" d="M170.52.21l172.01-.21c8.83.72,16.12,8,16.84,16.84v152.02c-.7,8.63-7.6,15.64-16.12,16.82l-93.45.11c-1.83.63-13.65,27.38-16.36,31.54-2.23,3.41-4.04,5.72-8.65,3.7s-19.23-29.91-24.14-34.99c-16.61-2.24-40.6,6.42-44.91-16.47V16.12c1.08-7.89,7.06-14.17,14.78-15.91ZM227.59,202.88c4.26-7.57,7.96-19.67,12.85-26.46.92-1.28,1.81-2.2,3.42-2.57l97.91-.14c3.46-.15,5.8-2.89,5.63-6.34-.45-50.7.73-101.58-.6-152.17-1.15-2.21-3.26-3.33-5.76-3.22-56.69.45-113.56-.73-170.14.6-2.21,1.15-3.33,3.26-3.22,5.76l.37,151.65c.82,2.01,2.42,3.32,4.57,3.66,8.99,1.4,21.25-.85,30.68,0,2.61.24,3.36.35,5.16,2.33,6.04,6.63,11.29,20.05,17.3,26.11.62.63.69,1.05,1.82.79Z"/>
      <path class="cls-1" d="M242.37,24.16c7.45-1.15,31.82-1.09,39.51-.2,4.04.47,5.29,2.53,5.63,6.34.91,9.94,1.03,38.61-2.39,47.08-1.45,3.58-3.78,7.22-6.61,9.84,11.05,6.83,24.57,9.84,30.3,22.83,3.68,8.33,3.55,35.52,2.66,45.32-.37,4.09-2.01,6.3-6.36,6.36-30.63-2.16-64.94,2.75-95.14,0-4.45-.4-5.96-1.92-6.36-6.36-.89-9.79-1.02-36.98,2.66-45.32,5.73-12.99,19.25-16,30.3-22.83-3.17-3.03-6.18-7.78-7.51-11.94-2.17-6.78-2.27-27.74-1.46-35.22s7.26-14.75,14.78-15.91ZM275.5,35.96h-31.81c-4.48,0-4.55,9.65-4.11,12.72,1.05.44,2.24-.74,2.62-.74h33.31v-11.98ZM275.5,59.91h-31.81c-1.56,0-3.82,3.24-4.08,4.92-1.23,8.05,6.38,17.21,14.15,18.7,14.43,2.77,23.87-10.05,21.74-23.61ZM249.04,94.56c-.32.05-5.5,2.92-5.72,3.15-2.22,2.32,3.15,6.41,5.13,7.6,6.67,3.99,14.4,3.29,20.33-1.6,1.59-1.31,4.98-3.92,2.99-6-.23-.24-5.4-3.1-5.72-3.15-1.55-.26-6.12,1.38-8.89,1.34-2.44-.04-6.63-1.59-8.12-1.34ZM299.46,149.74v-30.32c0-.29-1.77-4.77-2.09-5.39-2.58-4.97-7.8-7.59-12.64-9.86-1.06-.09-5.56,6.59-7.33,8.16-14.76,13.09-36.74,8.21-46.5-8.19-5.04,1.86-10.62,4.98-13.18,9.89-.32.62-2.09,5.1-2.09,5.39v30.32h11.98v-23.95h11.98v23.95h35.93v-23.95h11.98v23.95h11.98Z"/>
    </g>
  </g>
</svg>