<?xml version="1.0" encoding="UTF-8"?>
<svg id="Capa_2" data-name="Capa 2" xmlns="http://www.w3.org/2000/svg" viewBox="0 0 382.25 314.9">
  <defs>
    <style>
      .cls-1 {
        fill: #040404;
      }
    </style>
  </defs>
  <g id="Capa_1-2" data-name="Capa 1">
    <g>
      <path class="cls-1" d="M199.05,78.05v19.46c45.41,9.59,79.86,48.81,85.24,94.78,6.14,52.53-27.53,103.12-77.93,118-44.8,13.23-92.45-2.7-120.12-39.89l-61.81-.15c-6.85-1.53-4.2-11.82-.16-11.82h54.27c-5.78-9.94-9.51-20.9-12.08-32.09l-62.24-.26c-6.85-1.53-4.2-11.82-.16-11.82h61.01c-2.14-11.26.62-22.49,1.5-33.68H25.76c-5.44,0-8.74-10.44-.43-12.4l45.61-.42c3.98-12.35,11.15-23.28,18.82-33.58H13.79c-4.28,0-6.32-10.35.16-11.82l87.4-.17c14.31-11.54,30.68-21.31,49.05-24.69v-19.46h-20.58c-4.3,0-8.87-5.12-9.37-9.34-.57-4.76-.62-20.78.19-25.29s6.06-8.04,10.65-8.07c27.57,1.61,57.34-2.03,84.65,0,5.13.38,10.91,2.89,11.59,8.62.54,4.53.62,22.63-.34,26.64-.78,3.28-5.75,7.43-9.03,7.43h-19.09ZM215.52,47.36h-83.09v18.71h83.09v-18.71ZM187.07,78.05h-24.7v17.22c8.22-1.03,16.5-1.03,24.7,0v-17.22ZM168.95,106.72c-75.62,4.64-118,89.68-75.62,153.03s132.35,56.3,167.22-7.53c36.92-67.58-14.76-150.21-91.6-145.5Z"/>
      <path class="cls-1" d="M264.92,97.52c-9.09,1.05-17.59-1.76-19.48-11.58l.2-73.94c1.87-7.39,7.98-10.36,15.18-11.02,33.31-3.04,71.03,2.27,104.81-.04,8.28.65,14.91,4.25,16.07,13.12-1.28,22.68,1.7,47.19.03,69.65-.51,6.84-4.01,11.37-10.47,13.48l-62.51.37-35.8,24.85c-2.31,2.26-8.03-2.38-8.03-4.3v-20.58ZM368.97,85.54c-.24-.73.75-1.62.75-1.87V14.8c0-.08-1.04-1.12-1.12-1.12h-110.04c-.08,0-1.12,1.04-1.12,1.12v69.61c0,.08,1.04,1.12,1.12,1.12h14.22c.88,0,4.12,3.24,4.12,4.12v15.35l27.32-19.46h64.75Z"/>
      <path class="cls-1" d="M168.96,122.44c65.79-4.71,110.09,66.79,76.89,124.05-29.22,50.4-101.83,54.68-136.93,8.16-39.53-52.39-4.85-127.56,60.04-132.2ZM170.45,134.42c-62.82,4.02-89.44,82.36-41.78,123.67,39,33.8,100.92,14.69,114-34.98,12.2-46.33-24.34-91.76-72.22-88.69Z"/>
      <path class="cls-1" d="M275.93,22.07l73.22-.17c7.85.9,7.03,11.1-.75,12.01-21.93-1.95-48.25,2.55-69.65,0-7.29-.87-8.73-7.9-2.82-11.84Z"/>
      <path class="cls-1" d="M276.68,43.78l72.46-.17c7.49.87,7.25,11.07-.75,12.01-21.92-1.96-48.27,2.56-69.65,0-7.59-.91-8.92-8.9-2.07-11.83Z"/>
      <path class="cls-1" d="M276.68,65.49l71.72-.18c8.26,1.41,8.27,10.59,0,12.01-22.23-1.93-48.68,2.52-70.4,0-6.99-.81-7.72-9.57-1.32-11.83Z"/>
      <path class="cls-1" d="M181.2,195.46c.76,1.21,5.91.83,5.11,7.16-.55,4.33-4.67,4.34-5.1,5.05-.99,1.6.86,5.85-3.14,8.46-5.04,3.28-5.62-.35-7.98-1s-18.01,10.64-21.74,11.74l-3.21-.18c-15.57-10.99,17.27-18.73,23.12-25.62,1.3-13.05-1.34-28.27.12-41.05,1.04-9.18,11.11-9.3,12.55-1.32,1.06,5.88-.91,34.85.3,36.76Z"/>
    </g>
  </g>
</svg>